<?xml version="1.0" standalone="no"?>
<!DOCTYPE svg PUBLIC "-//W3C//DTD SVG 20010904//EN"
 "http://www.w3.org/TR/2001/REC-SVG-20010904/DTD/svg10.dtd">
<svg version="1.0" xmlns="http://www.w3.org/2000/svg"
 width="512.000000pt" height="512.000000pt" viewBox="0 0 512.000000 512.000000"
 preserveAspectRatio="xMidYMid meet">

<g transform="translate(0.000000,512.000000) scale(0.100000,-0.100000)"
fill="#000000" stroke="none">
<path d="M2080 4880 l0 -80 -80 0 -80 0 0 -160 0 -160 80 0 80 0 0 -80 0 -80
-80 0 -80 0 0 -80 0 -80 -80 0 -80 0 0 -160 0 -160 -160 0 -160 0 0 160 0 160
-80 0 -80 0 0 80 0 80 80 0 80 0 0 80 0 80 -80 0 -80 0 0 80 0 80 -80 0 -80 0
0 -80 0 -80 -80 0 -80 0 0 -80 0 -80 80 0 80 0 0 -80 0 -80 -80 0 -80 0 0
-160 0 -160 -80 0 -80 0 0 -320 0 -320 80 0 80 0 0 -560 0 -560 -80 0 -80 0 0
80 0 80 -240 0 -240 0 0 -160 0 -160 80 0 80 0 0 -80 0 -80 -80 0 -80 0 0
-240 0 -240 320 0 320 0 0 -240 0 -240 240 0 240 0 0 80 0 80 80 0 80 0 0 80
0 80 80 0 80 0 0 -160 0 -160 80 0 80 0 0 -240 0 -240 400 0 400 0 0 80 0 80
160 0 160 0 0 160 0 160 160 0 160 0 0 160 0 160 240 0 240 0 0 160 0 160 160
0 160 0 0 -80 0 -80 320 0 320 0 0 240 0 240 -80 0 -80 0 0 80 0 80 80 0 80 0
0 160 0 160 -240 0 -240 0 0 -80 0 -80 -240 0 -240 0 0 -80 0 -80 -160 0 -160
0 0 640 0 640 80 0 80 0 0 320 0 320 -80 0 -80 0 0 160 0 160 -80 0 -80 0 0
80 0 80 80 0 80 0 0 80 0 80 -80 0 -80 0 0 80 0 80 -80 0 -80 0 0 -80 0 -80
-80 0 -80 0 0 -80 0 -80 80 0 80 0 0 -80 0 -80 -80 0 -80 0 0 -160 0 -160
-160 0 -160 0 0 160 0 160 -80 0 -80 0 0 80 0 80 -80 0 -80 0 0 80 0 80 80 0
80 0 0 160 0 160 -80 0 -80 0 0 80 0 80 -160 0 -160 0 0 -80z m320 -640 l0
-80 80 0 80 0 0 -160 0 -160 80 0 80 0 0 -80 0 -80 160 0 160 0 0 80 0 80 80
0 80 0 0 160 0 160 80 0 80 0 0 -160 0 -160 80 0 80 0 0 -240 0 -240 -1280 0
-1280 0 0 240 0 240 80 0 80 0 0 160 0 160 80 0 80 0 0 -160 0 -160 80 0 80 0
0 -80 0 -80 160 0 160 0 0 80 0 80 80 0 80 0 0 160 0 160 80 0 80 0 0 80 0 80
160 0 160 0 0 -80z m960 -1120 l0 -80 -160 0 -160 0 0 -640 0 -640 -960 0
-960 0 0 720 0 720 1120 0 1120 0 0 -80z m-2560 -1120 l0 -80 80 0 80 0 0 -80
0 -80 -80 0 -80 0 0 80 0 80 -160 0 -160 0 0 80 0 80 160 0 160 0 0 -80z
m3840 0 l0 -80 -160 0 -160 0 0 -80 0 -80 -240 0 -240 0 0 -80 0 -80 -240 0
-240 0 0 80 0 80 240 0 240 0 0 80 0 80 240 0 240 0 0 80 0 80 160 0 160 0 0
-80z m-3040 -640 l0 -240 -80 0 -80 0 0 -80 0 -80 -160 0 -160 0 0 160 0 160
-80 0 -80 0 0 80 0 80 80 0 80 0 0 -80 0 -80 80 0 80 0 0 80 0 80 80 0 80 0 0
80 0 80 80 0 80 0 0 -240z m800 0 l0 -240 80 0 80 0 0 -160 0 -160 -320 0
-320 0 0 240 0 240 -80 0 -80 0 0 160 0 160 320 0 320 0 0 -240z m640 80 l0
-160 80 0 80 0 0 -160 0 -160 -160 0 -160 0 0 160 0 160 -80 0 -80 0 0 160 0
160 160 0 160 0 0 -160z"/>
</g>
</svg>
